<svg width="40" height="40" viewBox="0 0 40 40" fill="none" xmlns="http://www.w3.org/2000/svg">
<path d="M10.0915 36.6663H29.9082C30.3831 36.6818 30.8558 36.5956 31.2947 36.4134C31.7335 36.2313 32.1283 35.9574 32.4527 35.6102C32.777 35.2629 33.0234 34.8504 33.1753 34.4001C33.3271 33.9499 33.381 33.4724 33.3332 32.9997L31.4499 14.6663C31.3528 13.8305 30.9486 13.0606 30.3156 12.5062C29.6826 11.9518 28.8662 11.6525 28.0249 11.6663H26.6665V9.99967C26.6665 8.23156 25.9642 6.53587 24.7139 5.28563C23.4637 4.03539 21.768 3.33301 19.9999 3.33301C18.2318 3.33301 16.5361 4.03539 15.2858 5.28563C14.0356 6.53587 13.3332 8.23156 13.3332 9.99967V11.6663H11.9749C11.1364 11.6566 10.3241 11.9578 9.69464 12.5119C9.06521 13.0659 8.66332 13.8334 8.56654 14.6663L6.66655 32.9997C6.61878 33.4724 6.67263 33.9499 6.82449 34.4001C6.97636 34.8504 7.22272 35.2629 7.54706 35.6102C7.87141 35.9574 8.26624 36.2313 8.70508 36.4134C9.14393 36.5956 9.61665 36.6818 10.0915 36.6663ZM14.9999 9.99967C14.9999 8.67359 15.5267 7.40182 16.4643 6.46414C17.402 5.52646 18.6738 4.99967 19.9999 4.99967C21.326 4.99967 22.5977 5.52646 23.5354 6.46414C24.4731 7.40182 24.9999 8.67359 24.9999 9.99967V11.6663H14.9999V9.99967ZM10.2249 14.8413C10.2784 14.418 10.4869 14.0295 10.8101 13.7509C11.1333 13.4724 11.5483 13.3235 11.9749 13.333H13.3332V15.7413C13.1445 15.9101 13.0115 16.1322 12.9518 16.3782C12.8921 16.6242 12.9085 16.8826 12.9988 17.1191C13.0892 17.3556 13.2492 17.559 13.4577 17.7026C13.6662 17.8462 13.9134 17.923 14.1665 17.923C14.4197 17.923 14.6669 17.8462 14.8754 17.7026C15.0839 17.559 15.2439 17.3556 15.3343 17.1191C15.4246 16.8826 15.441 16.6242 15.3813 16.3782C15.3216 16.1322 15.1886 15.9101 14.9999 15.7413V13.333H24.9999V15.7413C24.8112 15.9101 24.6782 16.1322 24.6185 16.3782C24.5588 16.6242 24.5752 16.8826 24.6655 17.1191C24.7558 17.3556 24.9158 17.559 25.1244 17.7026C25.3329 17.8462 25.5801 17.923 25.8332 17.923C26.0864 17.923 26.3336 17.8462 26.5421 17.7026C26.7506 17.559 26.9106 17.3556 27.0009 17.1191C27.0913 16.8826 27.1077 16.6242 27.0479 16.3782C26.9882 16.1322 26.8552 15.9101 26.6665 15.7413V13.333H28.0249C28.4515 13.3235 28.8665 13.4724 29.1897 13.7509C29.5129 14.0295 29.7214 14.418 29.7749 14.8413L31.6582 33.1747C31.6819 33.3994 31.657 33.6266 31.5851 33.8409C31.5132 34.0551 31.396 34.2514 31.2415 34.4163C31.0722 34.601 30.8661 34.7483 30.6365 34.8488C30.4069 34.9492 30.1588 35.0006 29.9082 34.9997H10.0915C9.84094 35.0006 9.59289 34.9492 9.36329 34.8488C9.1337 34.7483 8.9276 34.601 8.75821 34.4163C8.48629 34.1209 8.33469 33.7345 8.33321 33.333H28.3332C28.5542 33.333 28.7662 33.2452 28.9225 33.0889C29.0787 32.9327 29.1665 32.7207 29.1665 32.4997C29.1665 32.2787 29.0787 32.0667 28.9225 31.9104C28.7662 31.7541 28.5542 31.6663 28.3332 31.6663H8.49988L10.2249 14.8413Z" fill="#FF7A59"/>
</svg>
