<svg width="30" height="30" viewBox="0 0 30 30" fill="none" xmlns="http://www.w3.org/2000/svg">
<g clip-path="url(#clip0_501_532)">
<path d="M30 15.0908C30 22.5771 24.5075 28.7833 17.3375 29.9096V19.4558H20.8237L21.4875 15.1308H17.3375V12.3246C17.3375 11.1408 17.9175 9.98832 19.775 9.98832H21.6613V6.30582C21.6613 6.30582 19.9487 6.01332 18.3125 6.01332C14.895 6.01332 12.6625 8.08457 12.6625 11.8333V15.1296H8.86375V19.4546H12.6625V29.9083C5.49375 28.7808 0 22.5758 0 15.0908C0 6.80707 6.71625 0.0908203 15 0.0908203C23.2838 0.0908203 30 6.80582 30 15.0908Z" fill="white"/>
</g>
<defs>
<clipPath id="clip0_501_532">
<rect width="30" height="30" fill="white"/>
</clipPath>
</defs>
</svg>
