<svg width="30" height="30" viewBox="0 0 30 30" fill="none" xmlns="http://www.w3.org/2000/svg">
<path d="M15 0.259766C6.71512 0.259766 0 6.93607 0 15.1731C0 23.4101 6.71512 30.0864 15 30.0864C23.2849 30.0864 30 23.4101 30 15.1731C30 6.93607 23.2849 0.259766 15 0.259766ZM10.4302 22.9939H6.77616V11.3147H10.4302V22.9939ZM8.59884 9.71063C7.43023 9.71063 6.47965 8.76555 6.47965 7.6037C6.47965 6.44185 7.43023 5.49676 8.59884 5.49676C9.76744 5.49676 10.718 6.44185 10.718 7.6037C10.718 8.76555 9.76744 9.71063 8.59884 9.71063ZM24.0959 22.9939H20.4506V17.3147C20.4506 15.9621 20.4244 14.2193 18.5494 14.2193C16.6483 14.2193 16.3605 15.6933 16.3605 17.2193V23.0025H12.7151V11.3147H16.2209V12.9101H16.2645C16.9797 11.6962 18.3052 10.9679 19.718 11.0199C23.4157 11.0199 24.0959 13.439 24.0959 16.5864V22.9939Z" fill="white"/>
</svg>
