<svg width="31" height="30" viewBox="0 0 31 30" fill="none" xmlns="http://www.w3.org/2000/svg">
<path d="M15.4998 24.5514C10.2395 24.5514 5.95976 20.2718 5.95976 15.0114C5.95976 9.75113 10.2395 5.47168 15.4998 5.47168C20.7601 5.47168 25.0398 9.75113 25.0398 15.0114C25.0398 20.2718 20.7601 24.5514 15.4998 24.5514ZM15.4998 6.40918C10.7565 6.40918 6.89726 10.2682 6.89726 15.0114C6.89726 19.755 10.7565 23.6139 15.4998 23.6139C20.243 23.6139 24.1023 19.755 24.1023 15.0114C24.1023 10.2682 20.243 6.40918 15.4998 6.40918Z" fill="#E84444"/>
<path d="M15.4998 19.6789C12.9261 19.6789 10.8322 17.5852 10.8322 15.0116C10.8322 12.4379 12.9261 10.3438 15.4998 10.3438C18.0734 10.3438 20.1676 12.4377 20.1676 15.0116C20.1676 17.5855 18.0734 19.6789 15.4998 19.6789ZM15.4998 11.2812C13.4431 11.2812 11.7697 12.9547 11.7697 15.0116C11.7697 17.068 13.4431 18.7414 15.4998 18.7414C17.5566 18.7414 19.2301 17.068 19.2301 15.0116C19.2301 12.9547 17.5566 11.2812 15.4998 11.2812Z" fill="#FF7A59"/>
<path d="M15.4998 6.4093C15.241 6.4093 15.031 6.1993 15.031 5.94055V3.01953C15.031 2.76078 15.241 2.55078 15.4998 2.55078C15.7585 2.55078 15.9685 2.76078 15.9685 3.01953V5.94031C15.9685 6.1993 15.7587 6.4093 15.4998 6.4093Z" fill="#E84444"/>
<path d="M15.4998 27.4556C15.241 27.4556 15.031 27.2456 15.031 26.9869V24.082C15.031 23.8233 15.241 23.6133 15.4998 23.6133C15.7585 23.6133 15.9685 23.8233 15.9685 24.082V26.9869C15.9685 27.2456 15.7587 27.4556 15.4998 27.4556Z" fill="#E84444"/>
<path d="M6.42852 15.4805H3.51594C3.25719 15.4805 3.04719 15.2705 3.04719 15.0117C3.04719 14.7527 3.25719 14.543 3.51594 14.543H6.42852C6.68727 14.543 6.89727 14.7527 6.89727 15.0117C6.89727 15.2705 6.68727 15.4805 6.42852 15.4805Z" fill="#E84444"/>
<path d="M27.4841 15.4805H24.571C24.3123 15.4805 24.1023 15.2705 24.1023 15.0117C24.1023 14.7527 24.3123 14.543 24.571 14.543H27.4841C27.7428 14.543 27.9528 14.7527 27.9528 15.0117C27.9528 15.2705 27.7428 15.4805 27.4841 15.4805Z" fill="#E84444"/>
</svg>
