<svg width="32" height="34" viewBox="0 0 32 34" fill="none" xmlns="http://www.w3.org/2000/svg">
<g clip-path="url(#clip0_538_357)">
<path fill-rule="evenodd" clip-rule="evenodd" d="M18.2866 0.78449C17.5113 1.5911 17.3822 1.94081 17.3822 3.23443V4.74371H14.8779C13.07 4.74371 12.3683 4.8564 12.3549 5.14847C12.3443 5.37126 12.176 4.86093 11.9804 4.01482C11.7847 3.16902 11.4172 2.2099 11.1637 1.88382C10.9102 1.55775 10.7555 1.22973 10.8197 1.15493C10.8843 1.08013 10.3152 0.97489 9.55559 0.921138C7.88185 0.802947 6.59239 1.60632 5.83747 3.23832C5.3686 4.2512 5.19691 4.35449 3.67622 4.53939C2.76741 4.64981 1.74508 4.65887 1.40421 4.55914C1.02883 4.44969 0.647335 4.57047 0.436413 4.86611C0.15064 5.26699 0.216311 5.57364 0.804833 6.58133C1.19885 7.25615 1.52135 7.92158 1.52135 8.05985C1.52135 8.19811 1.90647 8.92927 2.377 9.68472L3.23267 11.058L2.29798 11.2384C1.02187 11.4851 0.69297 11.7704 0.243579 13.0222C-0.212491 14.2922 -0.0641772 14.9262 0.996552 16.2441C1.42897 16.7813 2.31857 18.1417 2.97389 19.2669C3.81229 20.7072 4.55775 21.5614 5.49159 22.1527L6.81862 22.9926L7.72352 21.972L8.62815 20.9514L11.7433 26.8557C13.4565 30.1032 15.0284 33.0308 15.2363 33.3618C15.5841 33.9155 15.7141 33.7743 16.8761 31.5772C17.5701 30.2651 19.5004 26.6161 21.1655 23.4686C22.8309 20.3209 24.2572 17.8444 24.3354 17.9645C24.7211 18.5574 26.8014 19.9628 27.2933 19.9628C28.0373 19.9628 29.0691 17.7016 29.0691 16.0712C29.0691 13.8246 29.6512 11.6373 30.3677 11.1911C31.0097 10.7912 31.8517 9.24337 31.8517 8.46299C31.8517 8.24798 31.5548 7.56312 31.1919 6.94076C30.7194 6.13026 30.6048 5.65815 30.7885 5.27638C31.0183 4.79844 30.772 4.74371 28.3873 4.74371H25.7301V3.68259C25.7301 1.58171 24.5027 0.447728 22.1127 0.340547C21.2709 0.302662 20.2692 0.175404 19.8866 0.0578614C19.3529 -0.106634 18.9803 0.0627195 18.2866 0.78449ZM6.65834 7.41514C6.65222 7.90507 6.76046 8.30562 6.89903 8.30562C7.03733 8.30562 7.57187 8.84087 8.08693 9.49497C9.00269 10.6587 9.03552 10.6717 9.58536 10.0924C10.2237 9.42017 10.281 9.55326 9.83858 10.6834C9.66856 11.1173 9.22669 11.6328 8.8566 11.829C8.48651 12.0255 7.92136 12.7033 7.60053 13.3357C7.27997 13.9681 6.98362 14.4431 6.94189 14.391C6.60129 13.9645 3.46919 7.8743 3.46919 7.63857C3.46919 7.47116 3.34397 7.33419 3.19093 7.33419C3.03789 7.33419 2.91267 7.13051 2.91267 6.8815C2.91267 6.53341 3.34787 6.43983 4.79093 6.47674C6.64721 6.52402 6.66919 6.53503 6.65834 7.41514ZM16.3869 6.79667C16.2121 7.32674 16.804 7.93453 17.8514 8.30011C18.5515 8.54491 18.5017 8.5747 17.3822 8.58345C16.0978 8.59348 14.3706 7.92028 13.183 6.94627C12.526 6.40777 12.5527 6.39644 14.5214 6.3796C16.09 6.36632 16.4988 6.45796 16.3869 6.79667ZM26.9344 6.61404C26.7549 6.7468 26.5376 7.55341 26.4513 8.40632C26.3431 9.47781 26.3879 9.89002 26.5966 9.74009C26.7624 9.62061 26.6046 10.1167 26.246 10.842C25.6341 12.079 25.5795 12.1165 25.3675 11.4475C25.2434 11.0551 24.8124 10.3336 24.41 9.84371L23.6782 8.95324L24.4259 8.04495C24.8371 7.54564 25.1735 6.96278 25.1735 6.74971C25.1735 6.51754 25.5909 6.3647 26.217 6.36762C26.7911 6.37053 27.1139 6.48127 26.9344 6.61404ZM19.6083 9.98554C19.6083 10.3204 18.9132 11.2199 18.6542 11.2199C18.5668 11.2199 18.4953 10.7964 18.4953 10.2789C18.4953 9.49724 18.5896 9.36642 19.0518 9.50695C19.3579 9.60021 19.6083 9.81554 19.6083 9.98554ZM27.0841 13.5134C26.5476 13.8991 26.5014 13.6796 26.9024 12.6482C27.2533 11.7448 27.2624 11.7416 27.3543 12.4889C27.406 12.9082 27.2844 13.3694 27.0841 13.5134ZM19.9431 14.4373C20.2945 14.604 21.0519 14.8294 21.6257 14.9379C22.7671 15.1535 22.8579 15.3294 22.2913 16.2312C21.9418 16.7872 21.7852 16.8011 20.2194 16.4145C18.7452 16.0502 18.4892 15.8753 18.2465 15.0651C17.99 14.208 18.0208 14.1342 18.6358 14.1342C19.0031 14.1342 19.5916 14.2705 19.9431 14.4373ZM6.2518 16.7247C6.50307 16.9199 6.08206 18.3444 5.77375 18.3421C5.65409 18.3411 5.08255 18.0066 4.50349 17.599L3.4511 16.8574L4.15566 16.0871C4.54328 15.6632 4.86105 15.0868 4.86161 14.8064C4.86216 14.5257 5.12818 14.8061 5.45319 15.4294C5.77792 16.0528 6.13716 16.6356 6.2518 16.7247ZM17.3772 20.2976C16.8841 21.3694 16.728 20.7959 17.1374 19.4178C17.4362 18.412 17.5225 18.3142 17.6001 18.8935C17.6524 19.2854 17.5523 19.9171 17.3772 20.2976ZM9.2022 20.2302C8.78314 20.7179 8.77535 20.6917 9.10036 19.885C9.29347 19.4052 9.49771 19.1678 9.55364 19.3576C9.60957 19.5473 9.45152 19.9401 9.2022 20.2302Z" fill="#FAA21D"/>
<path fill-rule="evenodd" clip-rule="evenodd" d="M18.2866 0.78449C17.5113 1.5911 17.3822 1.94081 17.3822 3.23443V4.74371H14.8779C13.07 4.74371 12.3683 4.8564 12.3549 5.14847C12.3443 5.37126 12.176 4.86093 11.9804 4.01482C11.7847 3.16902 11.4172 2.2099 11.1637 1.88382C10.9102 1.55775 10.7555 1.22973 10.8197 1.15493C10.8843 1.08013 10.3152 0.97489 9.55559 0.921138C7.88185 0.802947 6.59239 1.60632 5.83747 3.23832C5.3686 4.2512 5.19691 4.35449 3.67622 4.53939C2.76741 4.64981 1.74508 4.65887 1.40421 4.55914C1.02883 4.44969 0.647335 4.57047 0.436413 4.86611C0.15064 5.26699 0.216311 5.57364 0.804833 6.58133C1.19885 7.25615 1.52135 7.92158 1.52135 8.05985C1.52135 8.19811 1.90647 8.92927 2.377 9.68472L3.23267 11.058L2.29798 11.2384C1.02187 11.4851 0.69297 11.7704 0.243579 13.0222C-0.212491 14.2922 -0.0641772 14.9262 0.996552 16.2441C1.42897 16.7813 2.31857 18.1417 2.97389 19.2669C3.81229 20.7072 4.55775 21.5614 5.49159 22.1527L6.81862 22.9926L7.72352 21.972L8.62815 20.9514L11.7433 26.8557C13.4565 30.1032 15.0284 33.0308 15.2363 33.3618C15.5841 33.9155 15.7141 33.7743 16.8761 31.5772C17.5701 30.2651 19.5004 26.6161 21.1655 23.4686C22.8309 20.3209 24.2572 17.8444 24.3354 17.9645C24.7211 18.5574 26.8014 19.9628 27.2933 19.9628C28.0373 19.9628 29.0691 17.7016 29.0691 16.0712C29.0691 13.8246 29.6512 11.6373 30.3677 11.1911C31.0097 10.7912 31.8517 9.24337 31.8517 8.46299C31.8517 8.24798 31.5548 7.56312 31.1919 6.94076C30.7194 6.13026 30.6048 5.65815 30.7885 5.27638C31.0183 4.79844 30.772 4.74371 28.3873 4.74371H25.7301V3.68259C25.7301 1.58171 24.5027 0.447728 22.1127 0.340547C21.2709 0.302662 20.2692 0.175404 19.8866 0.0578614C19.3529 -0.106634 18.9803 0.0627195 18.2866 0.78449ZM22.3817 1.14133C23.2485 1.17306 23.6965 1.42758 24.4687 2.32582C25.0094 2.95531 25.4499 3.64729 25.4476 3.86392C25.4448 4.11228 25.3436 4.07828 25.1735 3.77228C24.9576 3.38339 24.8942 3.44783 24.8558 4.09609C24.8293 4.54133 24.8182 5.12192 24.8316 5.38647C24.8446 5.65103 24.7492 5.94407 24.6192 6.03733C24.4896 6.13059 24.3421 6.4191 24.2915 6.67847C24.1584 7.36139 23.1651 8.25802 22.7479 8.07183C22.5515 7.9844 22.3909 8.0783 22.3909 8.28133C22.3909 8.51933 21.9068 8.61745 21.0252 8.55884C19.9973 8.49019 19.7277 8.37103 19.9361 8.07701C20.0883 7.862 20.1301 7.53074 20.0291 7.34034C19.928 7.14994 20.011 7.03434 20.2138 7.08324C20.4974 7.15188 20.5822 6.51819 20.5822 4.3315C20.5822 1.97773 20.5107 1.50788 20.1648 1.59078C19.9347 1.64615 19.787 1.95441 19.8357 2.27855C19.8883 2.62956 19.8045 2.78013 19.627 2.65222C19.4322 2.51234 19.3315 2.97409 19.3342 3.99604C19.3373 5.12095 19.4135 5.41821 19.6083 5.06752C19.8179 4.69028 19.8791 4.78516 19.8824 5.49139C19.8852 6.10436 19.7803 6.32455 19.561 6.16686C19.3495 6.01467 19.2914 6.10242 19.3955 6.41748C19.4834 6.6843 19.4108 6.92101 19.2341 6.94335C19.0574 6.96602 18.537 7.08 18.0779 7.19657C17.3071 7.3928 17.2832 7.37305 17.7662 6.94044C18.1998 6.55219 18.2824 6.07586 18.2485 4.16377C18.2106 2.01723 18.2557 1.82651 18.8932 1.43794C19.2702 1.20803 19.9609 1.03803 20.4284 1.06038C20.8956 1.08272 21.7746 1.11899 22.3817 1.14133ZM2.35613 5.84855C2.35613 6.23032 2.07398 6.28764 1.29624 6.06388C1.24894 6.04996 1.28761 5.89324 1.38222 5.71514C1.64073 5.22813 2.35613 5.32592 2.35613 5.84855ZM3.39378 5.58691C3.3014 5.69442 3.06126 5.70607 2.86063 5.61249C2.63857 5.5092 2.70452 5.43246 3.0287 5.41691C3.32199 5.40299 3.48616 5.47941 3.39378 5.58691ZM6.65834 7.41514C6.65222 7.90507 6.76046 8.30562 6.89903 8.30562C7.03733 8.30562 7.57187 8.84087 8.08693 9.49497C9.00269 10.6587 9.03552 10.6717 9.58536 10.0924C10.2237 9.42017 10.281 9.55326 9.83858 10.6834C9.66856 11.1173 9.22669 11.6328 8.8566 11.829C8.48651 12.0255 7.91608 12.7136 7.58912 13.3583L6.99476 14.5309L6.02529 12.7136C5.19079 11.149 4.99434 10.9528 4.61034 11.3012C4.21521 11.66 4.20825 11.6415 4.54829 11.1367C4.88303 10.6403 4.83851 10.4036 4.20046 9.28158C3.79837 8.57438 3.46919 7.84678 3.46919 7.6648C3.46919 7.48314 3.34397 7.33419 3.19093 7.33419C3.03789 7.33419 2.91267 7.13051 2.91267 6.8815C2.91267 6.53341 3.34787 6.43983 4.79093 6.47674C6.64721 6.52402 6.66919 6.53503 6.65834 7.41514ZM16.3869 6.79667C16.2121 7.32674 16.804 7.93453 17.8514 8.30011C18.5515 8.54491 18.5017 8.5747 17.3822 8.58345C16.0978 8.59348 14.3706 7.92028 13.183 6.94627C12.526 6.40777 12.5527 6.39644 14.5214 6.3796C16.09 6.36632 16.4988 6.45796 16.3869 6.79667ZM26.9344 6.61404C26.7549 6.7468 26.5376 7.55341 26.4513 8.40632C26.3431 9.47781 26.3879 9.89002 26.5966 9.74009C26.7624 9.62061 26.6046 10.1167 26.246 10.842C25.6341 12.079 25.5795 12.1165 25.3675 11.4475C25.2434 11.0551 24.8124 10.3336 24.41 9.84371L23.6782 8.95324L24.4259 8.04495C24.8371 7.54564 25.1735 6.96278 25.1735 6.74971C25.1735 6.51754 25.5909 6.3647 26.217 6.36762C26.7911 6.37053 27.1139 6.48127 26.9344 6.61404ZM2.46104 7.07514C2.37895 7.22927 2.57262 7.86945 2.89096 8.49764C3.20957 9.12583 3.34286 9.5484 3.18731 9.43636C3.03204 9.32465 2.66417 8.68447 2.37005 8.01386C1.9496 7.05442 1.91816 6.7944 2.22285 6.7944C2.43572 6.7944 2.54285 6.92068 2.46104 7.07514ZM28.3448 7.28011C28.4235 7.42874 28.3114 7.55017 28.0952 7.55017C27.879 7.55017 27.7669 7.42874 27.8456 7.28011C27.9243 7.13181 28.0367 7.01038 28.0952 7.01038C28.1536 7.01038 28.266 7.13181 28.3448 7.28011ZM29.6832 8.31857C29.615 8.85998 29.6682 9.27964 29.8012 9.25146C30.4039 9.12388 30.7089 9.31396 30.5711 9.73167C30.4815 10.0043 30.1223 10.1474 29.6757 10.0892C28.7196 9.96449 28.4051 10.1938 28.7908 10.7342C29.1665 11.261 28.7697 11.6049 28.2321 11.2183C27.9037 10.9822 27.9251 10.8252 28.3617 10.2637C28.6745 9.86152 29.0794 9.66367 29.3707 9.7715C29.6381 9.87027 29.9395 9.79579 30.0402 9.60604C30.1409 9.41628 30.065 9.30101 29.8716 9.3499C29.4745 9.45028 29.2207 8.50897 29.4542 7.80112C29.7085 7.03013 29.8154 7.27169 29.6832 8.31857ZM30.6504 8.6903C30.5617 8.94838 30.4957 8.87164 30.4824 8.4944C30.4704 8.1531 30.5361 7.96206 30.6285 8.06956C30.7208 8.17706 30.7309 8.45651 30.6504 8.6903ZM28.7908 8.62943C28.7908 8.80752 28.5718 8.95097 28.3039 8.94838C27.8876 8.94417 27.8776 8.89754 28.2343 8.62943C28.7594 8.23438 28.7908 8.23438 28.7908 8.62943ZM19.6083 9.98554C19.6083 10.3204 18.9132 11.2199 18.6542 11.2199C18.5668 11.2199 18.4953 10.7964 18.4953 10.2789C18.4953 9.49724 18.5896 9.36642 19.0518 9.50695C19.3579 9.60021 19.6083 9.81554 19.6083 9.98554ZM22.5465 9.7524C22.8434 10.014 23.3097 10.2326 23.5822 10.2381C23.8549 10.2439 24.1498 10.4661 24.2375 10.7322C24.3254 10.9984 24.5015 11.1409 24.6293 11.0493C24.757 10.9573 24.8519 11.1402 24.8402 11.4556C24.8282 11.7714 25.1477 12.8309 25.5497 13.8104C25.9521 14.7899 26.2863 15.3728 26.2927 15.1056C26.3016 14.7349 26.4009 14.7685 26.7129 15.2484C27.0819 15.8164 27.1436 15.8174 27.1113 15.2559C27.1061 15.1607 27.295 14.8573 27.5312 14.5823C27.7678 14.3071 27.8901 13.948 27.8031 13.7842C27.7163 13.6206 27.785 13.4866 27.956 13.4866C28.1272 13.4866 28.1951 13.3509 28.1071 13.1851C28.0189 13.0193 28.0929 12.7787 28.2713 12.6505C28.512 12.4773 28.5487 12.9507 28.4138 14.4901C28.3139 15.6299 28.2012 16.927 28.1636 17.3723C28.0648 18.5412 27.3025 19.1231 26.5 18.6416C25.6649 18.1404 24.617 17.0151 24.617 16.6201C24.617 15.8617 22.7179 14.2006 21.5998 13.9807C20.8794 13.8392 20.3268 13.5147 20.1493 13.1291C19.7427 12.2451 20.1228 10.3194 20.8154 9.75499C21.5509 9.15562 21.8678 9.15497 22.5465 9.7524ZM28.5126 9.47392C28.5126 9.74171 27.9722 9.89326 27.8484 9.66011C27.768 9.50889 27.8845 9.38487 28.1074 9.38487C28.3303 9.38487 28.5126 9.42503 28.5126 9.47392ZM4.21131 10.4645C4.21131 10.7018 4.12032 10.8961 4.00902 10.8961C3.89799 10.8961 3.743 10.7018 3.66453 10.4645C3.58634 10.2268 3.67733 10.0325 3.86682 10.0325C4.05632 10.0325 4.21131 10.2268 4.21131 10.4645ZM17.3647 15.9692C17.2158 16.4242 17.2206 16.7247 17.3758 16.7247C17.5177 16.7247 17.3177 17.1217 16.9312 17.607C16.5249 18.1174 16.3591 18.5406 16.5385 18.6102C16.7639 18.6976 16.7606 18.8547 16.5263 19.1827C16.3488 19.4317 16.2631 19.9958 16.3354 20.4368C16.4078 20.8778 16.3599 21.1615 16.2291 21.0673C16.0037 20.905 15.8643 21.8771 15.9765 22.8285C16.0048 23.0691 15.9036 23.1762 15.7513 23.0668C15.4494 22.8495 15.002 24.1007 15.27 24.4126C15.3604 24.5178 15.4344 24.3368 15.4344 24.0104C15.4344 23.684 15.5159 23.5114 15.6153 23.6273C15.8526 23.9035 17.1555 22.2644 16.9724 21.9199C16.895 21.7745 17.0497 21.4565 17.3157 21.2136C17.7632 20.8056 17.7685 20.8212 17.387 21.4199C16.986 22.0497 16.9904 22.0517 17.5495 21.4996C18.1708 20.8856 18.2051 20.7687 18.3308 18.8395C18.4021 17.7418 18.5423 17.4934 19.2897 17.1385C19.7989 16.8966 20.1648 16.8548 20.1648 17.0384C20.1648 17.2117 20.5583 17.4723 21.0394 17.6174C21.8071 17.8489 21.8642 17.939 21.5063 18.3554C21.2823 18.616 21.0731 18.9751 21.0414 19.1532C20.9768 19.5172 19.3423 22.7168 18.9127 23.3203C18.293 24.1917 17.9307 25.1907 18.1116 25.5307C18.2254 25.745 18.1769 25.8007 17.9925 25.668C17.8074 25.5349 17.4624 25.94 17.1388 26.6705C16.8402 27.3446 16.3118 28.2465 15.9642 28.6745C15.3643 29.4144 15.3223 29.4225 15.125 28.8364C14.8169 27.923 14.8359 21.8509 15.1525 20.0596C15.3036 19.205 15.46 17.7042 15.5004 16.7247C15.5407 15.7451 15.6707 14.8598 15.7897 14.7575C15.9086 14.6549 16.0338 14.1225 16.068 13.5746C16.102 13.0268 16.2013 12.6291 16.2881 12.6913C16.3752 12.7535 16.6215 12.2658 16.8357 11.6075L17.2247 10.4104L17.4181 12.8121C17.5244 14.1329 17.5005 15.5534 17.3647 15.9692ZM27.0841 13.5134C26.5476 13.8991 26.5014 13.6796 26.9024 12.6482C27.2533 11.7448 27.2624 11.7416 27.3543 12.4889C27.406 12.9082 27.2844 13.3694 27.0841 13.5134ZM5.64157 13.6569C5.55587 13.7566 5.40032 13.5769 5.29569 13.2576C5.14488 12.7962 5.1766 12.759 5.45152 13.0763C5.64185 13.2962 5.72728 13.5575 5.64157 13.6569ZM19.9431 14.4373C20.2945 14.604 21.0519 14.8294 21.6257 14.9379C22.7671 15.1535 22.8579 15.3294 22.2913 16.2312C21.9418 16.7872 21.7852 16.8011 20.2194 16.4145C18.7452 16.0502 18.4892 15.8753 18.2465 15.0651C17.99 14.208 18.0208 14.1342 18.6358 14.1342C19.0031 14.1342 19.5916 14.2705 19.9431 14.4373ZM6.2518 16.7247C6.50307 16.9199 6.08206 18.3444 5.77375 18.3421C5.65409 18.3411 5.08255 18.0066 4.50349 17.599L3.4511 16.8574L4.15566 16.0871C4.54328 15.6632 4.86105 15.0868 4.86161 14.8064C4.86216 14.5257 5.12818 14.8061 5.45319 15.4294C5.77792 16.0528 6.13716 16.6356 6.2518 16.7247ZM17.3772 20.2976C16.8841 21.3694 16.728 20.7959 17.1374 19.4178C17.4362 18.412 17.5225 18.3142 17.6001 18.8935C17.6524 19.2854 17.5523 19.9171 17.3772 20.2976ZM9.2022 20.2302C8.78314 20.7179 8.77535 20.6917 9.10036 19.885C9.29347 19.4052 9.49771 19.1678 9.55364 19.3576C9.60957 19.5473 9.45152 19.9401 9.2022 20.2302ZM18.4953 20.1247C18.2955 20.4048 18.2685 20.6104 18.4316 20.6104C18.5868 20.6104 18.7861 20.3918 18.8743 20.1247C18.9622 19.8575 18.9909 19.639 18.938 19.639C18.8851 19.639 18.6859 19.8575 18.4953 20.1247Z" fill="#DA9C2B"/>
<path fill-rule="evenodd" clip-rule="evenodd" d="M18.2866 0.78449C17.5113 1.5911 17.3822 1.94081 17.3822 3.23443V4.74371H14.8779C13.07 4.74371 12.3683 4.8564 12.3549 5.14847C12.3443 5.37126 12.176 4.86093 11.9804 4.01482C11.7847 3.16902 11.4172 2.2099 11.1637 1.88382C10.9102 1.55775 10.7555 1.22973 10.8197 1.15493C10.8843 1.08013 10.3152 0.97489 9.55559 0.921138C7.88185 0.802947 6.59239 1.60632 5.83747 3.23832C5.3686 4.2512 5.19691 4.35449 3.67622 4.53939C2.76741 4.64981 1.74508 4.65887 1.40421 4.55914C1.02883 4.44969 0.647335 4.57047 0.436413 4.86611C0.15064 5.26699 0.216311 5.57364 0.804833 6.58133C1.19885 7.25615 1.52135 7.92158 1.52135 8.05985C1.52135 8.19811 1.90647 8.92927 2.377 9.68472L3.23267 11.058L2.29798 11.2384C1.02187 11.4851 0.69297 11.7704 0.243579 13.0222C-0.212491 14.2922 -0.0641772 14.9262 0.996552 16.2441C1.42897 16.7813 2.31857 18.1417 2.97389 19.2669C3.81229 20.7072 4.55775 21.5614 5.49159 22.1527L6.81862 22.9926L7.72352 21.972L8.62815 20.9514L11.7433 26.8557C13.4565 30.1032 15.0284 33.0308 15.2363 33.3618C15.5841 33.9155 15.7141 33.7743 16.8761 31.5772C17.5701 30.2651 19.5004 26.6161 21.1655 23.4686C22.8309 20.3209 24.2572 17.8444 24.3354 17.9645C24.7211 18.5574 26.8014 19.9628 27.2933 19.9628C28.0373 19.9628 29.0691 17.7016 29.0691 16.0712C29.0691 13.8246 29.6512 11.6373 30.3677 11.1911C31.0097 10.7912 31.8517 9.24337 31.8517 8.46299C31.8517 8.24798 31.5548 7.56312 31.1919 6.94076C30.7194 6.13026 30.6048 5.65815 30.7885 5.27638C31.0183 4.79844 30.772 4.74371 28.3873 4.74371H25.7301V3.68259C25.7301 1.58171 24.5027 0.447728 22.1127 0.340547C21.2709 0.302662 20.2692 0.175404 19.8866 0.0578614C19.3529 -0.106634 18.9803 0.0627195 18.2866 0.78449ZM24.0341 1.28445C24.4019 1.49525 24.8602 2.10466 25.0522 2.63895C25.5058 3.90148 25.0414 6.1688 24.0477 7.5424C23.4428 8.37912 23.1289 8.53066 21.8965 8.5815C21.1029 8.61421 20.1381 8.78032 19.7527 8.95097C18.8935 9.33112 18.8417 8.94676 19.588 7.726C20.2536 6.63703 20.6053 1.3463 19.9433 2.38055C19.6829 2.78758 19.6236 3.46855 19.7463 4.64204C19.896 6.07166 19.8368 6.42072 19.3479 6.98966C18.6845 7.76162 17.5976 7.86426 17.1235 7.19948C16.8622 6.83326 16.9114 6.69855 17.3675 6.53017C17.8709 6.3443 17.9388 6.05385 17.9388 4.08703C17.9388 0.9723 18.3203 0.585671 21.2156 0.767004C22.3976 0.841157 23.6659 1.07398 24.0341 1.28445ZM5.69528 5.55324C5.99719 5.97678 5.80547 6.03895 4.19879 6.03895C3.18536 6.03895 2.35613 6.15682 2.35613 6.30091C2.35613 6.44501 2.80971 7.42842 3.36373 8.48663C6.46662 14.4101 6.80526 15.1694 6.56623 15.6665C6.37312 16.0683 6.15886 15.8462 5.52331 14.5866C5.08338 13.7145 4.72303 12.8963 4.72248 12.7684C4.72192 12.6408 4.50209 12.238 4.23413 11.874C3.67482 11.1137 1.00045 6.19956 0.776448 5.52053C0.551613 4.83859 5.20776 4.86967 5.69528 5.55324ZM30.3666 6.51722C31.643 7.55729 31.3661 10.0293 29.9011 10.6727C29.4436 10.8738 29.0682 11.1882 29.0669 11.3718C29.0657 11.5554 28.9475 12.8934 28.8042 14.3447C28.495 17.472 27.9076 19.3151 27.2201 19.3151C26.3637 19.3151 24.7634 17.7547 23.9425 16.1191C23.1907 14.6212 23.0699 14.5231 21.8035 14.3813C21.0656 14.299 20.2695 14.0458 20.0349 13.8194C19.0793 12.8966 19.8568 9.51861 21.109 9.1527C22.1728 8.84217 24.3772 10.1526 24.858 11.3818C25.067 11.9161 25.555 12.9989 25.9429 13.7884L26.6478 15.2235L27.3006 14.2741C27.9608 13.3137 28.2563 10.5723 27.6996 10.5723C27.3128 10.5723 26.8014 8.49213 27.0151 7.78849C27.4864 6.23583 29.2166 5.57946 30.3666 6.51722ZM6.65834 7.41514C6.65222 7.90507 6.76046 8.30562 6.89903 8.30562C7.03733 8.30562 7.57187 8.84087 8.08693 9.49497C9.00269 10.6587 9.03552 10.6717 9.58536 10.0924C10.2237 9.42017 10.281 9.55326 9.83858 10.6834C9.66856 11.1173 9.22669 11.6328 8.8566 11.829C8.48651 12.0255 7.92136 12.7033 7.60053 13.3357C7.27997 13.9681 6.98362 14.4431 6.94189 14.391C6.60129 13.9645 3.46919 7.8743 3.46919 7.63857C3.46919 7.47116 3.34397 7.33419 3.19093 7.33419C3.03789 7.33419 2.91267 7.13051 2.91267 6.8815C2.91267 6.53341 3.34787 6.43983 4.79093 6.47674C6.64721 6.52402 6.66919 6.53503 6.65834 7.41514ZM16.3869 6.79667C16.2121 7.32674 16.804 7.93453 17.8514 8.30011C18.5515 8.54491 18.5017 8.5747 17.3822 8.58345C16.0978 8.59348 14.3706 7.92028 13.183 6.94627C12.526 6.40777 12.5527 6.39644 14.5214 6.3796C16.09 6.36632 16.4988 6.45796 16.3869 6.79667ZM26.9344 6.61404C26.7549 6.7468 26.5376 7.55341 26.4513 8.40632C26.3431 9.47781 26.3879 9.89002 26.5966 9.74009C26.7624 9.62061 26.6046 10.1167 26.246 10.842C25.6341 12.079 25.5795 12.1165 25.3675 11.4475C25.2434 11.0551 24.8124 10.3336 24.41 9.84371L23.6782 8.95324L24.4259 8.04495C24.8371 7.54564 25.1735 6.96278 25.1735 6.74971C25.1735 6.51754 25.5909 6.3647 26.217 6.36762C26.7911 6.37053 27.1139 6.48127 26.9344 6.61404ZM28.1383 7.27882C27.4734 8.134 27.5713 9.18087 28.3734 9.79255C29.0179 10.2838 29.1203 10.2838 29.7647 9.79255C30.6418 9.12356 30.6791 7.87301 29.8418 7.19074C29.0407 6.53762 28.7009 6.5551 28.1383 7.27882ZM30.0132 7.84646C30.3062 8.73531 30.1991 9.24369 29.6456 9.58823C28.6525 10.2067 27.7522 9.23981 28.1077 7.93615C28.3153 7.17423 29.7689 7.1059 30.0132 7.84646ZM28.7908 8.46752C28.7908 8.73466 28.916 8.95324 29.0691 8.95324C29.2221 8.95324 29.3473 8.73466 29.3473 8.46752C29.3473 8.20038 29.2221 7.98181 29.0691 7.98181C28.916 7.98181 28.7908 8.20038 28.7908 8.46752ZM17.7618 13.0818C17.6329 15.8131 17.4365 17.2256 17.065 18.0879C16.7804 18.7488 16.5475 19.6691 16.5475 20.1331C16.5475 20.5971 16.4395 21.2221 16.3076 21.5222C16.1757 21.8221 15.9862 22.5047 15.8866 23.0389C15.7096 23.9854 15.7221 23.9786 16.3649 22.7851C16.7278 22.1112 17.2854 21.237 17.604 20.8422C17.9226 20.4475 18.1909 20.0152 18.2 19.8818C18.2095 19.7484 18.217 19.0516 18.217 18.3337C18.217 16.6874 18.598 16.4986 20.7325 17.0883L22.3695 17.5403L19.1108 23.6678C17.3182 27.038 15.7168 29.8454 15.5518 29.9066C14.165 30.4202 14.379 19.7254 15.8805 13.4866C16.2659 11.884 17.4579 9.27705 17.8049 9.27705C17.8798 9.27705 17.8606 10.989 17.7618 13.0818ZM19.6083 9.98554C19.6083 10.3204 18.9132 11.2199 18.6542 11.2199C18.5668 11.2199 18.4953 10.7964 18.4953 10.2789C18.4953 9.49724 18.5896 9.36642 19.0518 9.50695C19.3579 9.60021 19.6083 9.81554 19.6083 9.98554ZM19.0518 12.677C19.0518 13.1223 18.9372 13.4866 18.7966 13.4866C18.4708 13.4866 18.261 12.7975 18.4268 12.2723C18.6483 11.5712 19.0518 11.8326 19.0518 12.677ZM27.0841 13.5134C26.5476 13.8991 26.5014 13.6796 26.9024 12.6482C27.2533 11.7448 27.2624 11.7416 27.3543 12.4889C27.406 12.9082 27.2844 13.3694 27.0841 13.5134ZM19.9431 14.4373C20.2945 14.604 21.0519 14.8294 21.6257 14.9379C22.7671 15.1535 22.8579 15.3294 22.2913 16.2312C21.9418 16.7872 21.7852 16.8011 20.2194 16.4145C18.7452 16.0502 18.4892 15.8753 18.2465 15.0651C17.99 14.208 18.0208 14.1342 18.6358 14.1342C19.0031 14.1342 19.5916 14.2705 19.9431 14.4373ZM6.2518 16.7247C6.50307 16.9199 6.08206 18.3444 5.77375 18.3421C5.65409 18.3411 5.08255 18.0066 4.50349 17.599L3.4511 16.8574L4.15566 16.0871C4.54328 15.6632 4.86105 15.0868 4.86161 14.8064C4.86216 14.5257 5.12818 14.8061 5.45319 15.4294C5.77792 16.0528 6.13716 16.6356 6.2518 16.7247ZM17.3772 20.2976C16.8841 21.3694 16.728 20.7959 17.1374 19.4178C17.4362 18.412 17.5225 18.3142 17.6001 18.8935C17.6524 19.2854 17.5523 19.9171 17.3772 20.2976ZM9.2022 20.2302C8.78314 20.7179 8.77535 20.6917 9.10036 19.885C9.29347 19.4052 9.49771 19.1678 9.55364 19.3576C9.60957 19.5473 9.45152 19.9401 9.2022 20.2302Z" fill="white"/>
<path fill-rule="evenodd" clip-rule="evenodd" d="M7.43192 1.50423C6.933 1.85815 6.28493 2.60712 5.99136 3.16861L5.45766 4.18991L6.27213 5.86918C6.72013 6.79301 7.0866 7.70778 7.0866 7.90238C7.0866 8.36252 8.70802 10.2487 9.10343 10.2487C9.27094 10.2487 9.63686 10.0075 9.91679 9.7128C10.1967 9.41814 10.4257 9.3129 10.4257 9.47901C10.4257 9.9725 9.57369 11.2399 8.44145 12.4302C7.70934 13.1999 7.3298 13.9126 7.21682 14.7306C7.12694 15.3821 6.87289 16.302 6.65251 16.7748C6.43213 17.2475 6.25181 17.8689 6.25181 18.1555C6.25181 18.6315 6.16166 18.6328 5.20833 18.1714C3.49258 17.3405 3.30225 16.9483 4.14148 15.972C5.13571 14.8151 5.10065 13.3926 4.04715 12.1666C3.03846 10.9928 2.10822 10.9598 0.986277 12.0585C-0.171568 13.1921 -0.201621 14.806 0.912257 16.0284C1.34245 16.5005 2.23066 17.8093 2.88569 18.9365C4.29313 21.3586 6.293 23.0479 7.13334 22.5243C7.802 22.1079 9.31268 19.7004 9.31268 19.0508C9.31268 18.4919 9.67275 18.796 9.75178 19.4219C9.78016 19.6483 10.7619 21.6303 11.9331 23.8267C13.1043 26.0228 14.0108 27.8798 13.9477 27.9536C13.8842 28.0271 12.8689 26.2595 11.691 24.0252C10.5131 21.7909 9.50051 19.963 9.44096 19.963C9.38113 19.963 9.21473 20.2185 9.07115 20.531C8.86607 20.9768 9.5058 22.41 12.0563 27.2163C13.8417 30.581 15.4177 33.3293 15.5588 33.3232C15.6996 33.3173 17.678 29.7968 19.955 25.4998C22.9859 19.781 24.0485 17.5147 23.92 17.0439C23.8237 16.6903 23.6593 16.4059 23.5549 16.4118C23.4503 16.4179 21.6118 19.7541 19.4692 23.8257L15.5736 31.229L14.8634 29.8865C14.1644 28.5647 14.1564 28.4769 14.3448 24.1725C14.6664 16.8266 15.5738 11.9076 16.961 9.98934L17.6382 9.05256L16.0469 8.5377C13.6939 7.77642 12.585 6.78816 12.1423 5.05804C11.4586 2.38499 11.1859 1.80149 10.4004 1.32872C9.33912 0.690172 8.51018 0.739067 7.43192 1.50423ZM12.3736 5.1649C12.3736 6.04728 13.0692 6.36299 15.0031 6.35814C17.1463 6.35263 17.8336 6.05926 17.5706 5.26237C17.4315 4.84012 16.9342 4.74395 14.8865 4.74395C13.0102 4.74395 12.3736 4.85048 12.3736 5.1649ZM25.4618 5.21541C24.8132 6.12499 25.4187 6.44038 27.3637 6.20562C28.3782 6.08322 29.4587 5.96827 29.7647 5.95014C30.3001 5.9184 30.7256 5.49583 30.7345 4.9868C30.7367 4.85339 29.627 4.74395 28.2683 4.74395C26.4452 4.74395 25.71 4.86732 25.4618 5.21541ZM26.3114 11.0058C25.8097 12.0743 25.7198 12.5516 25.9357 13.0004C26.1898 13.5286 26.2988 13.4515 26.9706 12.2699C27.5905 11.18 27.6676 10.8312 27.4119 10.2753C27.2413 9.9045 27.0724 9.60109 27.0362 9.60109C27.0001 9.60109 26.6739 10.2332 26.3114 11.0058ZM3.50482 13.082C3.8507 13.5956 3.84096 13.6069 3.39964 13.2044C2.93606 12.7812 2.78886 12.5154 3.01786 12.5154C3.07546 12.5154 3.29473 12.7702 3.50482 13.082ZM1.35636 13.6529C1.04109 15.1152 2.48137 16.0504 3.46976 15.0249C3.80145 14.6807 3.80479 14.7047 3.49119 15.1868C2.64109 16.494 0.726379 15.2849 1.07643 13.6617C1.17382 13.2093 1.31629 12.8392 1.39281 12.8392C1.46934 12.8392 1.45292 13.2054 1.35636 13.6529ZM2.77354 14.1344C2.67893 14.3125 2.48387 14.4582 2.33973 14.4582C2.1956 14.4582 2.07789 14.3125 2.07789 14.1344C2.07789 13.9563 2.27323 13.8106 2.5117 13.8106C2.75017 13.8106 2.86816 13.9563 2.77354 14.1344ZM17.6825 18.2089C17.6958 18.5862 17.7618 18.6629 17.8506 18.4048C17.931 18.171 17.921 17.8916 17.8286 17.7841C17.7362 17.6766 17.6705 17.8676 17.6825 18.2089Z" fill="#A2A2A2"/>
<path fill-rule="evenodd" clip-rule="evenodd" d="M7.75858 1.31861C6.84589 1.78133 5.69528 3.25468 5.69528 3.96123C5.69528 4.19502 6.00832 5.07125 6.39093 5.90862C6.77354 6.74599 7.08658 7.7009 7.08658 8.03054C7.08658 8.36018 7.21792 8.62991 7.3782 8.62991C7.53848 8.62991 7.9542 9.01492 8.30203 9.4851L8.93424 10.3403L9.73618 9.72892C10.5295 9.12405 10.5356 9.12437 10.3111 9.76422C10.1864 10.1198 10.0225 10.6612 9.94683 10.9668C9.87114 11.2725 9.57758 11.6083 9.29486 11.7126C8.48262 12.0128 7.40491 13.7176 7.19483 15.0345C7.08909 15.6974 6.82001 16.5662 6.59657 16.9657C6.34363 17.4181 6.25764 18.0285 6.36867 18.5848C6.46662 19.0757 6.44937 19.315 6.32971 19.1162C6.21034 18.9177 5.58898 18.4462 4.94898 18.0686C3.55824 17.2481 3.23991 16.7507 3.79865 16.2712C4.97097 15.2651 5.1421 13.5803 4.20102 12.3071C3.27664 11.0565 1.71391 11.0565 0.789532 12.3071C-0.15572 13.5858 -0.0772505 14.9445 1.00936 16.1261C1.49325 16.652 2.40873 17.9854 3.04401 19.0893C4.16345 21.0344 5.81799 22.5366 6.85424 22.5485C7.38098 22.5544 9.31267 19.6624 9.31267 18.8675C9.31267 18.5796 9.43789 18.3442 9.59093 18.3442C9.74397 18.3442 9.86919 18.6806 9.86919 19.0919C9.86919 19.5031 10.8709 21.7254 12.095 24.03L14.3208 28.2204L14.3211 24.4402C14.3214 22.3614 14.438 19.9571 14.5801 19.0974C14.7226 18.238 14.9836 16.5875 15.1606 15.4299C15.5385 12.9567 16.3808 10.5248 17.1349 9.73087C17.653 9.18492 17.6035 9.14186 15.617 8.41296C13.0912 7.48622 12.1921 6.5258 11.9275 4.47285C11.7878 3.38679 11.4795 2.66793 10.8289 1.91086C9.84832 0.769431 9.12011 0.628895 7.75858 1.31861ZM12.5552 5.5657C12.6885 5.97047 13.1641 6.04624 15.098 5.97047C16.6935 5.9083 17.5144 5.74445 17.5918 5.47277C17.6786 5.16774 17.0511 5.06801 15.049 5.06801C12.772 5.06801 12.4144 5.13925 12.5552 5.5657ZM25.3013 5.41351C25.0244 5.93485 25.1936 5.99961 26.8495 6.00609C29.1489 6.01515 30.1704 5.85875 30.5272 5.44363C30.772 5.15868 30.2024 5.06801 28.1672 5.06801C26.5674 5.06801 25.4106 5.20725 25.3013 5.41351ZM26.2997 11.1054C25.7256 12.2378 25.7034 13.1632 26.2504 13.1632C26.667 13.1632 27.6754 10.9416 27.5001 10.4102C27.2502 9.65283 26.9472 9.82833 26.2997 11.1054ZM3.46919 12.8394C3.77528 13.1956 4.02571 13.6732 4.02571 13.9006C4.02571 14.6596 3.16672 15.7537 2.57096 15.7537C1.82327 15.7537 0.964836 14.8616 0.964836 14.0845C0.964836 13.3653 1.91371 12.1918 2.49527 12.1918C2.72484 12.1918 3.16311 12.4832 3.46919 12.8394ZM1.57701 13.228C0.823201 14.1052 1.41256 15.4299 2.55677 15.4299C3.40018 15.4299 3.99817 14.0667 3.47615 13.3349C3.05403 12.7429 2.04254 12.6863 1.57701 13.228ZM2.91267 14.1538C2.91267 14.3215 2.72484 14.4585 2.49527 14.4585C2.06508 14.4585 1.94237 14.0764 2.25569 13.7118C2.47802 13.4531 2.91267 13.7455 2.91267 14.1538ZM14.3962 16.29C14.2078 16.3787 13.8322 16.3842 13.5614 16.3019C13.2907 16.2197 13.4448 16.1472 13.904 16.1407C14.3631 16.1342 14.5846 16.2012 14.3962 16.29ZM9.34829 17.2918C9.69417 17.8054 9.68443 17.8167 9.24311 17.4142C8.77952 16.991 8.63232 16.7252 8.86133 16.7252C8.91893 16.7252 9.1382 16.98 9.34829 17.2918ZM19.6548 23.6061C17.6458 27.3908 15.8921 30.6804 15.7583 30.9164C15.5861 31.2202 14.6308 29.674 12.4999 25.6429C10.168 21.2316 9.42871 20.0572 9.23643 20.4571C9.0998 20.7414 9.06418 21.2057 9.15768 21.489C9.60568 22.8477 15.5349 33.5724 15.7104 33.3415C15.8209 33.1965 17.7501 29.592 19.9976 25.3323C23.669 18.3737 24.3502 16.7252 23.5538 16.7252C23.4183 16.7252 21.6638 19.8217 19.6548 23.6061Z" fill="#6A6A6A"/>
<path fill-rule="evenodd" clip-rule="evenodd" d="M7.36483 1.7273C6.49443 2.43774 5.71669 3.49401 5.70445 3.982C5.69944 4.18632 6.00692 4.98775 6.38758 5.76295C6.76824 6.53815 7.08128 7.35933 7.08323 7.58762C7.08518 7.81622 7.5329 8.52245 8.07829 9.15744C9.03384 10.2694 9.08949 10.2905 9.61039 9.74224C10.2635 9.05447 10.6725 9.39026 10.2164 10.2399C9.96379 10.7108 9.96629 10.8804 10.227 10.9837C10.4129 11.0572 10.0411 11.4299 9.40114 11.8117C7.98953 12.6536 7.97088 12.6857 7.03648 15.8949C6.47523 17.8239 6.35892 18.6188 6.57095 19.0799C6.72622 19.418 6.78354 19.7755 6.69839 19.8749C6.61297 19.974 6.46632 19.8224 6.37255 19.5378C6.2785 19.2532 5.52441 18.5754 4.69631 18.0314C3.86848 17.4878 3.19092 16.9557 3.19092 16.8492C3.19092 16.743 3.50396 16.3693 3.88657 16.019C4.78452 15.1971 4.85853 13.1604 4.0257 12.1912C2.73122 10.6849 0.296997 11.8007 0.296997 13.9003C0.296997 15.2302 0.768928 16.0063 1.93874 16.5996C2.39787 16.8324 2.6138 17.0286 2.41846 17.0357C1.46235 17.0697 4.12726 20.9975 5.81492 22.0409L6.81944 22.6619L7.67342 21.717C9.18633 20.0433 9.72782 18.1762 8.92532 17.4013C8.71245 17.1954 8.46869 16.7194 8.38438 16.3431C8.26667 15.8198 8.42083 15.9176 9.03857 16.7582C9.50883 17.3984 9.85137 18.2448 9.85777 18.7837C9.86695 19.5287 13.0775 26.219 14.0445 27.5084C14.1519 27.6515 14.1811 26.704 14.1093 25.4033C13.9933 23.3011 14.2103 20.6741 14.766 17.4531C14.9433 16.4253 14.9246 16.4007 13.9696 16.4007C13.3831 16.4007 12.7289 16.1352 12.3348 15.7373L11.6779 15.0734L12.5683 15.5753C13.9833 16.3722 14.8367 16.2379 15.0365 15.1865C15.421 13.1613 16.0346 11.2952 16.6785 10.1923L17.3627 9.0208L16.4681 8.8223C13.7618 8.22099 11.817 6.33933 11.817 4.322C11.817 3.89424 11.5312 3.04909 11.1817 2.44389C10.6388 1.50355 10.3656 1.33031 9.30347 1.25163C8.46424 1.18946 7.83453 1.34391 7.36483 1.7273ZM12.5511 5.55312C12.676 5.93133 13.2275 6.03883 15.0468 6.03883C16.9373 6.03883 17.3822 5.94622 17.3822 5.55312C17.3822 5.15742 16.9195 5.06741 14.8865 5.06741C12.7826 5.06741 12.4161 5.1435 12.5511 5.55312ZM25.3511 5.55312C25.1705 6.10133 26.3915 6.19361 28.9995 5.82901C31.2954 5.50811 30.7089 5.06741 27.9858 5.06741C26.0431 5.06741 25.4768 5.17167 25.3511 5.55312ZM26.3506 11.1566C25.961 11.9633 25.8455 12.5325 26.0091 12.8405C26.2907 13.3705 26.264 13.3961 27.074 11.8273C27.5705 10.8655 27.613 10.589 27.3095 10.2956C27.0209 10.0168 26.8091 10.2069 26.3506 11.1566ZM3.40712 12.6954C4.89777 13.9103 3.42104 16.5895 1.78208 15.6437C0.928928 15.1515 0.7322 13.6746 1.40448 12.8103C1.98827 12.0594 2.58514 12.0254 3.40712 12.6954ZM1.5411 13.4437C1.16907 14.2523 1.40976 15.0207 2.11682 15.282C2.86925 15.5598 3.51398 14.8419 3.4138 13.8381C3.30389 12.7394 1.99188 12.4632 1.5411 13.4437ZM2.84893 14.0735C2.90959 14.285 2.76072 14.4579 2.51835 14.4579C2.27627 14.4579 2.07787 14.227 2.07787 13.9453C2.07787 13.3734 2.67697 13.4729 2.84893 14.0735ZM11.1063 16.1676C11.0145 16.4464 10.7571 16.756 10.5342 16.8554C10.2295 16.9914 10.2518 16.8457 10.6255 16.2644C11.1692 15.4183 11.3665 15.3785 11.1063 16.1676ZM12.0713 18.8293C12.063 19.5417 11.9542 20.416 11.8298 20.7722C11.6834 21.1902 11.6039 20.5746 11.6052 19.0365C11.6064 17.5775 11.7001 16.8243 11.8471 17.0937C11.979 17.3359 12.08 18.1169 12.0713 18.8293ZM19.5187 24.0164C17.4034 28.0203 15.5877 31.2908 15.4839 31.2843C15.3801 31.2778 14.1683 29.0921 12.7909 26.4265C9.65046 20.3496 9.4042 19.9562 9.17519 20.6504C9.06445 20.9862 10.17 23.3756 12.2725 27.3455L15.5421 33.5187L17.8881 29.0882C19.1781 26.6516 21.0834 23.0686 22.1216 21.1261C23.7647 18.0528 24.1996 16.708 23.5438 16.7307C23.4452 16.7343 21.634 20.0128 19.5187 24.0164Z" fill="#1A1A1A"/>
</g>
<defs>
<clipPath id="clip0_538_357">
<rect width="32" height="34" fill="white"/>
</clipPath>
</defs>
</svg>
